                                                                        S0000001
,,31HOpen CASCADE IGES processor 6.7,13HFilename.iges,                  G0000001
16HOpen CASCADE 6.7,31HOpen CASCADE IGES processor 6.7,32,308,15,308,15,G0000002
,1.,6,1HM,1,0.01,15H20150831.161827,1E-07,110.,7Hkubuntu,,11,0,         G0000003
15H20150831.161827,;                                                    G0000004
     402       1       0       0       0       0       0       000000000D0000001
     402       0       0       1       1                               0D0000002
     510       2       0       0       0       0       0       000010000D0000003
     510       0       0       1       1                               0D0000004
     190       3       0       0       0       0       0       000010000D0000005
     190       0       0       1       1                               0D0000006
     116       4       0       0       0       0       0       000010400D0000007
     116       0       0       1       0                               0D0000008
     123       5       0       0       0       0       0       000010200D0000009
     123       0       0       1       0                               0D0000010
     123       6       0       0       0       0       0       000010200D0000011
     123       0       0       1       0                               0D0000012
     508       7       0       0       0       0       0       000010000D0000013
     508       0       0       1       1                               0D0000014
     504       8       0       0       0       0       0       000010001D0000015
     504       0       0       3       1                               0D0000016
     110      11       0       0       0       0       0       000010000D0000017
     110       0       0       1       0                               0D0000018
     502      12       0       0       0       0       0       000010000D0000019
     502       0       0       2       1                               0D0000020
     110      14       0       0       0       0       0       000010000D0000021
     110       0       0       1       0                               0D0000022
     110      15       0       0       0       0       0       000010000D0000023
     110       0       0       1       0                               0D0000024
     110      16       0       0       0       0       0       000010000D0000025
     110       0       0       1       0                               0D0000026
     110      17       0       0       0       0       0       000010000D0000027
     110       0       0       1       0                               0D0000028
     110      18       0       0       0       0       0       000010000D0000029
     110       0       0       1       0                               0D0000030
     110      19       0       0       0       0       0       000010000D0000031
     110       0       0       1       0                               0D0000032
     110      20       0       0       0       0       0       000010000D0000033
     110       0       0       1       0                               0D0000034
     110      21       0       0       0       0       0       000010000D0000035
     110       0       0       1       0                               0D0000036
     110      22       0       0       0       0       0       000010000D0000037
     110       0       0       1       0                               0D0000038
     510      23       0       0       0       0       0       000010000D0000039
     510       0       0       1       1                               0D0000040
     190      24       0       0       0       0       0       000010000D0000041
     190       0       0       1       1                               0D0000042
     116      25       0       0       0       0       0       000010400D0000043
     116       0       0       1       0                               0D0000044
     123      26       0       0       0       0       0       000010200D0000045
     123       0       0       1       0                               0D0000046
     123      27       0       0       0       0       0       000010200D0000047
     123       0       0       1       0                               0D0000048
     508      28       0       0       0       0       0       000010000D0000049
     508       0       0       1       1                               0D0000050
     510      29       0       0       0       0       0       000010000D0000051
     510       0       0       1       1                               0D0000052
     190      30       0       0       0       0       0       000010000D0000053
     190       0       0       1       1                               0D0000054
     116      31       0       0       0       0       0       000010400D0000055
     116       0       0       1       0                               0D0000056
     123      32       0       0       0       0       0       000010200D0000057
     123       0       0       1       0                               0D0000058
     123      33       0       0       0       0       0       000010200D0000059
     123       0       0       1       0                               0D0000060
     508      34       0       0       0       0       0       000010000D0000061
     508       0       0       1       1                               0D0000062
402,3,3,39,51;                                                   0000001P0000001
510,5,1,1,13;                                                    0000003P0000002
190,7,9,11;                                                      0000005P0000003
116,-60.,0.,0.,0;                                                0000007P0000004
123,0.,0.,1.;                                                    0000009P0000005
123,1.,0.,-0.;                                                   0000011P0000006
508,4,0,15,1,0,0,0,15,2,1,0,0,15,3,1,0,0,15,4,0,0;               0000013P0000007
504,10,17,19,1,19,2,21,19,1,19,3,23,19,3,19,4,25,19,2,19,4,27,   0000015P0000008
19,3,19,5,29,19,5,19,6,31,19,4,19,6,33,19,5,19,7,35,19,7,19,8,   0000015P0000009
37,19,6,19,8;                                                    0000015P0000010
110,-110.,-50.,0.,-110.,50.,0.;                                  0000017P0000011
502,8,-110.,-50.,0.,-110.,50.,0.,-50.,-50.,0.,-50.,50.,0.,-10.,  0000019P0000012
-50.,0.,-10.,50.,0.,50.,-50.,0.,50.,50.,0.;                      0000019P0000013
110,-110.,-50.,0.,-50.,-50.,0.;                                  0000021P0000014
110,-50.,-50.,0.,-50.,50.,0.;                                    0000023P0000015
110,-110.,50.,0.,-50.,50.,0.;                                    0000025P0000016
110,-50.,-50.,0.,-10.,-50.,0.;                                   0000027P0000017
110,-10.,-50.,0.,-10.,50.,0.;                                    0000029P0000018
110,-50.,50.,0.,-10.,50.,0.;                                     0000031P0000019
110,-10.,-50.,0.,50.,-50.,0.;                                    0000033P0000020
110,50.,-50.,0.,50.,50.,0.;                                      0000035P0000021
110,-10.,50.,0.,50.,50.,0.;                                      0000037P0000022
510,41,1,1,49;                                                   0000039P0000023
190,43,45,47;                                                    0000041P0000024
116,0.,0.,0.,0;                                                  0000043P0000025
123,0.,0.,1.;                                                    0000045P0000026
123,1.,0.,-0.;                                                   0000047P0000027
508,4,0,15,3,0,0,0,15,5,1,0,0,15,6,1,0,0,15,7,0,0;               0000049P0000028
510,53,1,1,61;                                                   0000051P0000029
190,55,57,59;                                                    0000053P0000030
116,0.,0.,0.,0;                                                  0000055P0000031
123,0.,0.,1.;                                                    0000057P0000032
123,1.,0.,-0.;                                                   0000059P0000033
508,4,0,15,6,0,0,0,15,8,1,0,0,15,9,1,0,0,15,10,0,0;              0000061P0000034
S      1G      4D     62P     34                                        T0000001
